<?xml version="1.0" encoding="UTF-8" standalone="no"?>
<!-- Uploaded to: SVG Repo, www.svgrepo.com, Generator: SVG Repo Mixer Tools -->

<svg
   fill="#000000"
   height="319"
   width="1027"
   version="1.1"
   id="Capa_1"
   viewBox="0 0 625.82812 194.39062"
   xml:space="preserve"
   xmlns="http://www.w3.org/2000/svg"
   xmlns:svg="http://www.w3.org/2000/svg"><defs
   id="defs4" />
<g
   id="g4"
   transform="matrix(0.52094465,0,0,0.52094465,49.872774,126.45338)">
	
<text
   xml:space="preserve"
   style="font-style:normal;font-variant:normal;font-weight:normal;font-stretch:normal;font-size:224.592px;line-height:0;font-family:Arial;-inkscape-font-specification:'Arial, Normal';font-variant-ligatures:normal;font-variant-caps:normal;font-variant-numeric:normal;font-variant-east-asian:normal;letter-spacing:16.5754px;fill:#000000;stroke:#000000;stroke-width:6.47692;stroke-dasharray:none;stroke-opacity:1"
   x="172.81248"
   y="252.17068"
   id="text13"><tspan
     id="tspan13"
     style="stroke-width:6.47692"
     x="172.81248"
     y="252.17068" /></text><g
   id="g15"
   transform="translate(-35.23943,-10.670493)"><g
     id="g3"
     transform="matrix(0.60978016,0,0,0.60978016,36.877028,-194.12691)"
     style="fill:#002db3;fill-opacity:1">
		<path
   d="M 437,12.3 C 437,5.5 431.5,0 424.7,0 H 126.3 C 84.4,0 50.4,34.1 50.4,75.9 v 335.7 c 0,41.9 34.1,75.9 75.9,75.9 h 298.5 c 6.8,0 12.3,-5.5 12.3,-12.3 V 139.6 c 0,-6.8 -5.5,-12.3 -12.3,-12.3 H 126.3 C 98,127.3 74.9,104.2 74.9,75.9 74.9,47.6 98,24.5 126.3,24.5 H 424.8 C 431.5,24.5 437,19 437,12.3 Z M 126.3,151.8 H 412.5 V 463 H 126.3 C 98,463 74.9,439.9 74.9,411.6 V 131.7 c 13.5,12.5 31.6,20.1 51.4,20.1 z"
   id="path1"
   style="fill:#002db3;fill-opacity:1" />
		<path
   d="m 130.5,64.8 c -6.8,0 -12.3,5.5 -12.3,12.3 0,6.8 5.5,12.3 12.3,12.3 h 280.1 c 6.8,0 12.3,-5.5 12.3,-12.3 0,-6.8 -5.5,-12.3 -12.3,-12.3 z"
   id="path2"
   style="fill:#002db3;fill-opacity:1" />
		<path
   id="path3"
   d="m 182.82786,398.4516 c -0.0125,0.0103 -0.0242,0.0215 -0.0365,0.032 0.0228,-7.7e-4 0.0458,-0.001 0.0685,-0.002 -0.01,-0.0109 -0.0222,-0.0188 -0.032,-0.0297 z"
   style="fill:#002db3;fill-opacity:1" />
	</g><path
     d="m 185.25271,45.338465 -45.26484,-100.788 h -19.10612 v -10.25832 h 62.3193 v 10.25832 h -17.95206 l 31.80079,71.167099 h 0.51292 l 31.67256,-71.167099 H 211.2832 v -10.25832 h 47.44473 v 10.25832 H 240.0065 l -44.49547,100.788 z"
     id="text14"
     style="font-size:262.613px;line-height:0;font-family:'Javanese Text';-inkscape-font-specification:'Javanese Text';letter-spacing:19.3816px;fill:#245eff;stroke:#245eff;stroke-width:7.57296"
     aria-label="v" /><path
     d="m 391.47656,323.60796 q 0,-8.8125 2.71875,-16.6875 2.8125,-7.875 8.15625,-13.78125 5.34375,-5.90625 13.03125,-9.28125 7.78125,-3.46875 17.625,-3.46875 9.75,0 17.25,3.375 7.5,3.28125 12.5625,9 5.0625,5.71875 7.59375,13.3125 2.625,7.59375 2.625,16.125 0,8.8125 -2.8125,16.6875 -2.71875,7.875 -8.0625,13.78125 -5.34375,5.90625 -13.125,9.375 -7.6875,3.375 -17.53125,3.375 -9.75,0 -17.25,-3.28125 -7.5,-3.375 -12.5625,-9.09375 -5.0625,-5.71875 -7.6875,-13.3125 -2.53125,-7.59375 -2.53125,-16.125 z m 18.5625,-0.375 q 0,10.21875 1.40625,16.96875 1.40625,6.75 4.125,10.78125 2.71875,4.03125 6.84375,5.71875 4.125,1.59375 9.65625,1.59375 5.4375,0 9.65625,-1.6875 4.21875,-1.6875 7.03125,-5.71875 2.8125,-4.125 4.21875,-10.96875 1.5,-6.9375 1.5,-17.34375 0,-10.21875 -1.40625,-16.96875 -1.40625,-6.75 -4.125,-10.78125 -2.71875,-4.03125 -6.9375,-5.625 -4.125,-1.6875 -9.5625,-1.6875 -5.53125,0 -9.75,1.6875 -4.125,1.6875 -6.9375,5.8125 -2.8125,4.03125 -4.3125,10.96875 -1.40625,6.84375 -1.40625,17.25 z m 166.9825,13.59375 q -3.09375,14.15625 -11.625,21.375 -8.4375,7.21875 -21.9375,7.21875 -9.375,0 -16.875,-3.28125 -7.40625,-3.375 -12.65625,-9.09375 -5.15625,-5.71875 -7.96875,-13.3125 -2.8125,-7.59375 -2.8125,-16.125 0,-8.90625 2.90625,-16.78125 3,-7.875 8.4375,-13.6875 5.4375,-5.90625 13.03125,-9.28125 7.6875,-3.46875 17.0625,-3.46875 6.65625,0 12.1875,1.78125 5.625,1.6875 9.65625,4.59375 4.03125,2.90625 6.28125,6.75 2.25,3.84375 2.25,8.0625 0,3 -1.03125,5.0625 -1.03125,1.96875 -2.625,3.1875 -1.5,1.21875 -3.375,1.78125 -1.875,0.5625 -3.5625,0.5625 -4.59375,0 -7.3125,-2.90625 -2.625,-2.90625 -2.625,-6.9375 0,-2.4375 1.21875,-5.25 1.21875,-2.8125 3.75,-5.25 -3.1875,-2.53125 -7.40625,-3.375 -4.125,-0.9375 -7.59375,-0.9375 -4.40625,0 -8.53125,1.21875 -4.03125,1.125 -7.21875,4.96875 -3.09375,3.75 -4.96875,10.78125 -1.875,7.03125 -1.875,18.75 0,10.875 1.6875,17.625 1.78125,6.75 4.78125,10.59375 3.09375,3.75 7.21875,5.15625 4.125,1.3125 9,1.3125 4.40625,0 8.34375,-1.21875 3.9375,-1.21875 7.125,-3.84375 3.28125,-2.71875 5.71875,-7.03125 2.53125,-4.40625 4.03125,-10.78125 1.875,0.1875 3.75,0.65625 1.875,0.46875 3.5625,1.125 z m 108.01375,25.96875 q -3.9375,0.75 -7.3125,0.9375 -3.375,0.1875 -5.34375,0.1875 -4.96875,0 -8.25,-0.84375 -3.1875,-0.75 -5.0625,-2.25 -1.875,-1.5 -2.71875,-3.65625 -0.84375,-2.15625 -1.03125,-4.78125 h -0.46875 q -2.625,3.65625 -5.625,6.1875 -3,2.53125 -6.28125,4.03125 -3.28125,1.5 -6.75,2.15625 -3.375,0.65625 -6.84375,0.65625 -5.71875,0 -10.21875,-1.59375 -4.5,-1.5 -7.59375,-4.3125 -3.09375,-2.8125 -4.6875,-6.65625 -1.59375,-3.9375 -1.59375,-8.625 0,-13.03125 12.75,-19.78125 12.84375,-6.84375 36.9375,-7.3125 0.0937,-4.21875 0.0937,-7.59375 0.0937,-3.375 0.0937,-6.65625 0,-8.53125 -3.5625,-11.90625 -3.46875,-3.46875 -11.0625,-3.46875 -5.0625,0 -9.09375,1.125 -3.9375,1.125 -6.46875,3 2.25,2.15625 3.28125,4.59375 1.125,2.34375 1.125,4.6875 0,3.9375 -2.53125,6.5625 -2.53125,2.625 -6.9375,2.625 -1.875,0 -3.65625,-0.5625 -1.78125,-0.5625 -3.09375,-1.78125 -1.3125,-1.21875 -2.15625,-3 -0.75,-1.875 -0.75,-4.3125 0,-3.84375 2.0625,-7.40625 2.15625,-3.65625 6.28125,-6.46875 4.21875,-2.8125 10.40625,-4.5 6.28125,-1.6875 14.625,-1.6875 6.75,0 11.90625,1.3125 5.25,1.3125 8.8125,4.40625 3.65625,3 5.4375,8.0625 1.875,5.0625 1.875,12.5625 0,1.875 -0.0937,6.1875 0,4.21875 -0.0937,9.375 -0.0937,5.15625 -0.1875,10.5 0,5.25 0,9.28125 0,4.125 0.1875,6.9375 0.1875,2.71875 0.9375,4.40625 0.75,1.59375 2.25,2.34375 1.5,0.65625 4.21875,0.65625 2.34375,0 6.1875,-0.5625 z m -30.09375,-38.625 q -10.21875,0.28125 -16.5,1.59375 -6.28125,1.21875 -9.75,3.5625 -3.46875,2.25 -4.6875,5.53125 -1.21875,3.28125 -1.21875,7.5 0,7.3125 3,10.96875 3.09375,3.5625 8.4375,3.5625 2.90625,0 6.46875,-1.21875 3.65625,-1.21875 6.84375,-3.9375 3.1875,-2.8125 5.25,-7.3125 2.15625,-4.5 2.15625,-11.15625 z m 78.48251,38.625 h -13.125 V 234.07671 h -14.0625 v -7.5 h 30.9375 v 66.84375 h 0.375 q 4.125,-6.65625 10.6875,-9.84375 6.65625,-3.1875 14.4375,-3.1875 8.15625,0 14.90625,3 6.84375,3 11.8125,8.53125 4.96875,5.4375 7.6875,13.21875 2.8125,7.78125 2.8125,17.25 0,10.03125 -3.09375,18 -3,7.96875 -8.15625,13.5 -5.15625,5.53125 -12,8.53125 -6.84375,3 -14.4375,3 -7.59375,0 -14.0625,-3.28125 -6.375,-3.375 -10.59375,-10.6875 h -0.5625 z m 47.90625,-40.125 q 0,-10.6875 -1.5,-17.4375 -1.5,-6.84375 -4.3125,-10.6875 -2.71875,-3.9375 -6.5625,-5.34375 -3.84375,-1.40625 -8.53125,-1.40625 -6.375,0 -10.78125,2.4375 -4.40625,2.4375 -7.21875,6.9375 -2.71875,4.5 -4.03125,10.875 -1.21875,6.28125 -1.21875,14.15625 0,8.0625 1.125,13.875 1.21875,5.8125 3.09375,9.84375 1.875,3.9375 4.3125,6.375 2.53125,2.34375 5.0625,3.65625 2.625,1.21875 5.15625,1.6875 2.625,0.375 4.6875,0.375 4.5,0 8.25,-1.40625 3.84375,-1.40625 6.5625,-5.25 2.8125,-3.9375 4.3125,-10.78125 1.59375,-6.9375 1.59375,-17.90625 z m 76.32624,32.625 h 14.0625 v 7.5 h -45 v -7.5 h 14.0625 V 234.07671 h -14.0625 v -7.5 h 30.9375 z m 40.88876,-31.6875 q 0,-8.8125 2.71875,-16.6875 2.8125,-7.875 8.15625,-13.78125 5.34375,-5.90625 13.03125,-9.28125 7.78125,-3.46875 17.625,-3.46875 9.75,0 17.25,3.375 7.5,3.28125 12.5625,9 5.0625,5.71875 7.59375,13.3125 2.625,7.59375 2.625,16.125 0,8.8125 -2.8125,16.6875 -2.71875,7.875 -8.0625,13.78125 -5.34375,5.90625 -13.125,9.375 -7.6875,3.375 -17.53125,3.375 -9.75,0 -17.25,-3.28125 -7.5,-3.375 -12.5625,-9.09375 -5.0625,-5.71875 -7.6875,-13.3125 -2.53125,-7.59375 -2.53125,-16.125 z m 18.5625,-0.375 q 0,10.21875 1.40625,16.96875 1.40625,6.75 4.125,10.78125 2.71875,4.03125 6.84375,5.71875 4.125,1.59375 9.65625,1.59375 5.4375,0 9.65625,-1.6875 4.21875,-1.6875 7.03125,-5.71875 2.8125,-4.125 4.21875,-10.96875 1.5,-6.9375 1.5,-17.34375 0,-10.21875 -1.40625,-16.96875 -1.40625,-6.75 -4.125,-10.78125 -2.71875,-4.03125 -6.9375,-5.625 -4.125,-1.6875 -9.5625,-1.6875 -5.53125,0 -9.75,1.6875 -4.125,1.6875 -6.9375,5.8125 -2.8125,4.03125 -4.3125,10.96875 -1.40625,6.84375 -1.40625,17.25 z"
     id="text15"
     style="font-size:192px;line-height:0;font-family:'Javanese Text';-inkscape-font-specification:'Javanese Text';letter-spacing:14.17px;white-space:pre;fill:#245eff;stroke:#245eff;stroke-width:5.537"
     transform="matrix(1.1697518,0,0,1.1697518,-136.98974,-373.35477)"
     aria-label="ocablo" /></g></g>
</svg>
